<svg width="40" height="40" viewBox="0 0 40 40" fill="none" xmlns="http://www.w3.org/2000/svg">
<path d="M37.5735 11.1079L33.8235 7.42355C33.6493 7.24875 33.4423 7.11005 33.2144 7.01542C32.9865 6.92078 32.7421 6.87207 32.4953 6.87207C32.2486 6.87207 32.0042 6.92078 31.7763 7.01542C31.5484 7.11005 31.3414 7.24875 31.1672 7.42355L16.25 22.161L10.0782 16.1735C9.90396 15.9987 9.69697 15.8601 9.46906 15.7654C9.24115 15.6708 8.9968 15.6221 8.75003 15.6221C8.50325 15.6221 8.2589 15.6708 8.03099 15.7654C7.80308 15.8601 7.5961 15.9987 7.4219 16.1735L3.6719 19.9235C3.4971 20.0977 3.35841 20.3047 3.26377 20.5326C3.16914 20.7605 3.12042 21.0049 3.12042 21.2517C3.12042 21.4984 3.16914 21.7428 3.26377 21.9707C3.35841 22.1986 3.4971 22.4056 3.6719 22.5798L14.861 33.8298C15.0352 34.0046 15.2421 34.1433 15.4701 34.2379C15.698 34.3326 15.9423 34.3813 16.1891 34.3813C16.4359 34.3813 16.6802 34.3326 16.9081 34.2379C17.136 34.1433 17.343 34.0046 17.5172 33.8298L37.5766 13.7626C37.7509 13.5882 37.8892 13.3812 37.9834 13.1533C38.0777 12.9254 38.126 12.6812 38.1257 12.4346C38.1254 12.188 38.0765 11.9439 37.9817 11.7163C37.887 11.4886 37.7482 11.2819 37.5735 11.1079ZM36.6938 12.8798L16.6297 32.9423C16.5125 33.0592 16.3538 33.1248 16.1883 33.1248C16.0228 33.1248 15.8641 33.0592 15.7469 32.9423L4.55784 21.6923C4.49973 21.6343 4.45363 21.5653 4.42218 21.4895C4.39072 21.4136 4.37453 21.3322 4.37453 21.2501C4.37453 21.168 4.39072 21.0866 4.42218 21.0108C4.45363 20.9349 4.49973 20.866 4.55784 20.8079L8.30784 17.0579C8.36561 16.9995 8.4345 16.9532 8.51044 16.9218C8.58639 16.8904 8.66785 16.8745 8.75003 16.8751C8.91961 16.876 9.08193 16.944 9.20159 17.0642L15.8188 23.4829C15.9355 23.597 16.0923 23.6608 16.2555 23.6608C16.4187 23.6608 16.5755 23.597 16.6922 23.4829L32.0625 8.31105C32.1206 8.25247 32.1898 8.20597 32.2659 8.17424C32.3421 8.14251 32.4238 8.12617 32.5063 8.12617C32.5888 8.12617 32.6705 8.14251 32.7466 8.17424C32.8228 8.20597 32.8919 8.25247 32.95 8.31105L36.7 11.9954C36.7577 12.0539 36.8033 12.1231 36.8343 12.1992C36.8652 12.2753 36.8808 12.3568 36.8802 12.4389C36.8796 12.521 36.8629 12.6023 36.8309 12.6779C36.7989 12.7536 36.7523 12.8222 36.6938 12.8798Z" fill="#67686B" stroke="white" style="fill:#67686B;fill:color(display-p3 0.4032 0.4060 0.4200);fill-opacity:1;stroke:white;stroke-opacity:1;" stroke-width="0.5"/>
</svg>
