<svg width="152" height="40" viewBox="0 0 152 40" fill="none" xmlns="http://www.w3.org/2000/svg">
<path d="M28.4949 8.57129H12.3044C10.4711 8.57129 8.97107 10.0713 8.97107 11.9046V28.0951C8.97107 29.9284 10.4711 31.4284 12.3044 31.4284H28.4949C30.3282 31.4284 31.8282 29.9284 31.8282 28.0951V11.9046C31.8282 10.0713 30.3282 8.57129 28.4949 8.57129ZM24.5663 24.7618H16.233C15.3044 24.7618 14.733 23.7618 15.2092 22.9761L19.3996 15.8332C19.852 15.0475 20.9949 15.0475 21.4473 15.8332L25.5901 22.9761C26.0425 23.7618 25.4711 24.7618 24.5663 24.7618Z" fill="#1C1C1F" style="fill:#1C1C1F;fill:color(display-p3 0.1080 0.1108 0.1200);fill-opacity:1;"/>
<path d="M70.3045 15.7378C66.5902 15.7378 64.495 18.0235 64.495 22.0473C64.495 26.0711 66.5902 28.3568 70.3045 28.3568C74.0188 28.3568 75.1379 27.1902 75.7807 24.5949C75.8283 24.3807 75.6617 24.1902 75.4474 24.1902H73.8045C73.6379 24.1902 73.5188 24.2854 73.4712 24.4521C73.3283 25.0473 72.7331 26.5235 70.2807 26.5235C67.8283 26.5235 67.2093 25.3568 66.8521 23.2616C66.8283 23.0711 66.9712 22.8806 67.1855 22.8806H75.7569C75.9474 22.8806 76.0902 22.7378 76.0902 22.5473V22.1902C76.0902 18.0711 73.995 15.7616 70.2807 15.7616L70.3045 15.7378ZM73.4236 21.1426H67.1855C66.9712 21.1426 66.8283 20.9521 66.8521 20.7616C67.1855 18.7616 68.3998 17.6187 70.3045 17.6187C72.2093 17.6187 73.3998 18.7378 73.7331 20.7616C73.7569 20.9521 73.614 21.1426 73.3998 21.1426H73.4236Z" fill="#1C1C1F" style="fill:#1C1C1F;fill:color(display-p3 0.1080 0.1108 0.1200);fill-opacity:1;"/>
<path d="M63.7807 16.0477H62.5188C61.3759 16.0477 60.3283 16.6668 59.7569 17.643C59.5902 17.9287 59.1854 17.8096 59.1854 17.4763V16.3573C59.1854 16.1668 59.0426 16.0239 58.8521 16.0239H57.0188C56.8283 16.0239 56.6854 16.1668 56.6854 16.3573V27.762C56.6854 27.9525 56.8283 28.0954 57.0188 28.0954H58.8521C59.0426 28.0954 59.1854 27.9525 59.1854 27.762V20.6668C59.1854 19.2858 60.3045 18.1906 61.6616 18.1906H62.8997C63.0188 18.1906 63.114 18.1192 63.1616 18.0239L64.0426 16.5001C64.1616 16.2858 64.0188 16.0239 63.7807 16.0239V16.0477Z" fill="#1C1C1F" style="fill:#1C1C1F;fill:color(display-p3 0.1080 0.1108 0.1200);fill-opacity:1;"/>
<path d="M53.6853 16.0239H51.9472C51.7631 16.0239 51.6139 16.1732 51.6139 16.3573V27.762C51.6139 27.9461 51.7631 28.0954 51.9472 28.0954H53.6853C53.8694 28.0954 54.0187 27.9461 54.0187 27.762V16.3573C54.0187 16.1732 53.8694 16.0239 53.6853 16.0239Z" fill="#1C1C1F" style="fill:#1C1C1F;fill:color(display-p3 0.1080 0.1108 0.1200);fill-opacity:1;"/>
<path d="M53.7807 11.9048H51.8759C51.6787 11.9048 51.5188 12.0647 51.5188 12.2619V14.2857C51.5188 14.483 51.6787 14.6429 51.8759 14.6429H53.7807C53.9779 14.6429 54.1378 14.483 54.1378 14.2857V12.2619C54.1378 12.0647 53.9779 11.9048 53.7807 11.9048Z" fill="#1C1C1F" style="fill:#1C1C1F;fill:color(display-p3 0.1080 0.1108 0.1200);fill-opacity:1;"/>
<path d="M49.3045 11.9047H38.8045C38.614 11.9047 38.4712 12.0475 38.4712 12.238V27.7618C38.4712 27.9523 38.614 28.0951 38.8045 28.0951H40.6379C40.8283 28.0951 40.9712 27.9523 40.9712 27.7618V20.6428C40.9712 20.4761 41.114 20.3332 41.2807 20.3332H47.1379C47.2331 20.3332 47.3283 20.2856 47.3998 20.2142L48.2569 18.738C48.4474 18.5237 48.2807 18.1904 47.995 18.1904H42.9236C42.6617 18.1904 42.4236 18.2856 42.2331 18.4523C41.995 18.6666 41.7093 18.9285 41.5664 19.0475C41.3521 19.238 40.995 19.0951 40.995 18.7856V14.4761C40.995 14.2856 41.1379 14.1428 41.3283 14.1428H48.4236C48.5426 14.1428 48.6379 14.0951 48.6855 13.9761L49.5664 12.4047C49.7331 12.1904 49.5664 11.8809 49.3045 11.8809V11.9047Z" fill="#1C1C1F" style="fill:#1C1C1F;fill:color(display-p3 0.1080 0.1108 0.1200);fill-opacity:1;"/>
<path d="M120.662 23.7854H118.924C118.781 23.7854 118.638 23.8807 118.614 24.0235C118.257 25.4759 117.162 26.2854 115.638 26.2854C113.447 26.2854 112.162 24.7854 112.162 22.0473C112.162 19.3092 113.447 17.8092 115.638 17.8092C117.828 17.8092 118.447 19.3568 118.614 19.9759C118.662 20.1187 118.781 20.214 118.924 20.214H120.685C120.9 20.214 121.043 20.0235 121.019 19.8092C120.495 17.1902 118.566 15.7378 115.566 15.7378C112.566 15.7378 109.757 18.0235 109.757 22.0473C109.757 26.0711 111.828 28.3568 115.566 28.3568C119.304 28.3568 120.543 26.8568 121.019 24.1902C121.066 23.9759 120.9 23.7854 120.685 23.7854H120.662Z" fill="#1C1C1F" style="fill:#1C1C1F;fill:color(display-p3 0.1080 0.1108 0.1200);fill-opacity:1;"/>
<path d="M127.971 21.6191C127.852 21.4762 127.852 21.2857 127.971 21.1429L133.067 16.5C133.257 16.3334 133.138 16 132.876 16H130.709C130.638 16 130.543 16.0238 130.495 16.0953L125.9 20.3095C125.733 20.4524 125.495 20.3334 125.495 20.1191V12.2381C125.495 12.0476 125.352 11.9048 125.162 11.9048H123.4C123.209 11.9048 123.067 12.0476 123.067 12.2381V27.7619C123.067 27.9524 123.209 28.0953 123.4 28.0953H125.162C125.352 28.0953 125.495 27.9524 125.495 27.7619V22.7381C125.495 22.5238 125.781 22.4048 125.924 22.5715L130.709 27.9762C130.781 28.0476 130.852 28.0953 130.947 28.0953H133.162C133.4 28.0953 133.543 27.8095 133.376 27.6191L127.995 21.6191H127.971Z" fill="#1C1C1F" style="fill:#1C1C1F;fill:color(display-p3 0.1080 0.1108 0.1200);fill-opacity:1;"/>
<path d="M139.9 20.976C137.4 20.4998 136.804 20.1903 136.804 19.1903C136.804 18.1903 137.852 17.5712 139.138 17.5712C141.423 17.5712 141.828 18.9046 141.9 19.4998C141.9 19.6665 142.066 19.7855 142.233 19.7855H143.923C144.114 19.7855 144.28 19.6189 144.257 19.4284C144.066 17.1189 142.257 15.7617 139.138 15.7617C136.019 15.7617 134.423 17.0951 134.423 19.2855C134.423 21.476 135.4 22.357 139.161 22.976C141.757 23.4046 142.114 23.8331 142.114 24.857C142.114 25.8808 141.114 26.5712 139.495 26.5712C137.019 26.5712 136.638 25.0951 136.566 24.4522C136.566 24.2855 136.4 24.1427 136.233 24.1427H134.542C134.352 24.1427 134.185 24.3093 134.209 24.4998C134.4 27.2141 136.519 28.3808 139.447 28.3808C142.376 28.3808 144.519 27.0712 144.519 24.7141C144.519 22.357 143.495 21.6665 139.876 20.976H139.9Z" fill="#1C1C1F" style="fill:#1C1C1F;fill:color(display-p3 0.1080 0.1108 0.1200);fill-opacity:1;"/>
<path d="M93.9236 11.9048H92.1855C92.0014 11.9048 91.8522 12.054 91.8522 12.2381V27.7619C91.8522 27.946 92.0014 28.0953 92.1855 28.0953H93.9236C94.1077 28.0953 94.2569 27.946 94.2569 27.7619V12.2381C94.2569 12.054 94.1077 11.9048 93.9236 11.9048Z" fill="#1C1C1F" style="fill:#1C1C1F;fill:color(display-p3 0.1080 0.1108 0.1200);fill-opacity:1;"/>
<path d="M102.305 15.7378C98.5665 15.7378 96.3522 18.4521 96.3522 22.0473C96.3522 25.6426 98.5903 28.3568 102.305 28.3568C106.019 28.3568 108.257 25.6426 108.257 22.0473C108.257 18.4521 106.019 15.7378 102.305 15.7378ZM102.305 26.4045C99.9236 26.4045 98.8046 24.5711 98.8046 22.0711C98.8046 19.5711 99.9236 17.7378 102.305 17.7378C104.686 17.7378 105.805 19.5711 105.805 22.0711C105.805 24.5711 104.686 26.4045 102.305 26.4045Z" fill="#1C1C1F" style="fill:#1C1C1F;fill:color(display-p3 0.1080 0.1108 0.1200);fill-opacity:1;"/>
<path d="M84.8522 15.7619C83.2331 15.7619 81.9236 16.381 81.1379 17.4524C81.0188 17.6429 80.7331 17.5476 80.7331 17.3095V12.2381C80.7331 12.0476 80.5903 11.9048 80.3998 11.9048H78.6379C78.4474 11.9048 78.3046 12.0476 78.3046 12.2381V27.7619C78.3046 27.9524 78.4474 28.0953 78.6379 28.0953H80.3046C80.495 28.0953 80.6379 27.9524 80.6379 27.7619V26.4524C80.6379 26.2381 80.9236 26.1667 81.0427 26.3334C81.8284 27.5715 83.1617 28.3334 84.8284 28.3334C88.1141 28.3334 90.1379 26.0238 90.1379 22.0476C90.1379 18.0715 88.0903 15.7619 84.876 15.7619H84.8522ZM84.1855 26.3572C82.0188 26.3572 80.7569 24.7143 80.7569 22.0715C80.7569 19.4286 82.0427 17.7619 84.1855 17.7619C86.3284 17.7619 87.6617 19.4286 87.6617 22.0715C87.6617 24.7143 86.3522 26.3572 84.1855 26.3572Z" fill="#1C1C1F" style="fill:#1C1C1F;fill:color(display-p3 0.1080 0.1108 0.1200);fill-opacity:1;"/>
</svg>
